<?xml version="1.0" encoding="utf-8"?>
<svg xmlns="http://www.w3.org/2000/svg" version="1.1" viewBox="0 0 128 64.7">
  <defs>
    <style> .cls-1 { fill: #fff; } .cls-2 { fill: #ffb81c; } .cls-3 { fill: #ababab; } </style>
  </defs>
  <g>
    <g id="Layer_1">
      <g id="Peplink_x5F_Logo_x5F_Dark">
        <g>
          <path class="cls-1" d="M10.4,56.8c-.8,0-2.3-.1-3.5-.3v7.3c0,.5-.4.8-.8.8H.9c-.5,0-.9-.4-.9-.8v-29.8c0-.7.2-1,1.3-1.2,2.4-.6,5.8-1.1,9-1.1,6.9,0,10.7,4,10.7,10.9v3.3c0,6.7-3.5,10.9-10.7,10.9ZM14.1,42.7c0-3-.8-5.2-3.8-5.2s-2.7,0-3.5.2v13.2c1,.1,2.5.3,3.5.3,3,0,3.8-2.3,3.8-5.2v-3.3Z"/>
          <path class="cls-1" d="M41.8,46.4h-13.5c0,2.5,1,4.7,4.4,4.7s6.5-.2,8.2-.4h.1c.5,0,.8.2.8.7v3.2c0,.7-.2,1-.9,1.1-2.7.7-5,1-8.7,1s-10.7-2.7-10.7-10.9v-3c0-6.8,4-11.2,10.7-11.2s10.5,4.8,10.5,11.2v2.5c0,.6-.3,1-.9,1ZM36,42c0-3.1-1.4-4.7-3.8-4.7s-3.9,1.6-3.9,4.7v.2h7.7v-.2Z"/>
          <path class="cls-1" d="M54.4,56.8c-.8,0-2.2-.1-3.5-.3v7.3c0,.5-.4.8-.8.8h-5.1c-.5,0-.9-.4-.9-.8v-29.8c0-.7.2-1,1.3-1.2,2.4-.6,5.8-1.1,9-1.1,6.9,0,10.7,4,10.7,10.9v3.3c0,6.7-3.5,10.9-10.7,10.9ZM58.1,42.7c0-3-.8-5.2-3.8-5.2s-2.7,0-3.5.2v13.2c1,.1,2.5.3,3.5.3,3,0,3.8-2.3,3.8-5.2v-3.3Z"/>
          <path class="cls-3" d="M72.2,56.5h-5.2c-.5,0-.9-.4-.9-.9v-30.8c0-.5.4-.9.9-.9h5.2c.5,0,.8.4.8.9v30.8c0,.5-.3.9-.8.9Z"/>
          <path class="cls-3" d="M81.2,56.5h-5.2c-.5,0-.8-.4-.8-.8v-22.6c0-.5.4-.8.8-.8h5.2c.5,0,.8.4.8.8v22.6c0,.5-.4.8-.8.8Z"/>
          <path class="cls-3" d="M104.1,56.5h-5.1c-.5,0-.8-.4-.8-.9v-14.1c0-3-.6-3.9-3.1-3.9s-2.5.6-4,1.4v16.7c0,.5-.4.9-.8.9h-5.1c-.5,0-.9-.4-.9-.9v-22.6c0-.5.4-.8.8-.8h4.8c.5,0,.8.4.8.8v1c2.3-1.7,4.2-2.2,6.9-2.2,6.2,0,7.5,4.3,7.5,9.6v14.1c0,.5-.4.9-.9.9Z"/>
          <path class="cls-3" d="M127.8,33l-7.9,10.7,7.8,11.8c0,0,0,.2,0,.3,0,.3-.2.6-.6.6h-6.4c-.5,0-.7,0-1.1-.6l-6.1-10v9.7c0,.5-.4.9-.8.9h-5.1c-.5,0-.9-.4-.9-.9v-30.8c0-.5.4-.9.9-.9h5.1c.5,0,.8.4.8.9v17.7l6.5-9.7c.3-.5.8-.6,1.1-.6h6.1c.4,0,.6.2.6.5s0,.3-.2.4Z"/>
        </g>
        <path class="cls-2" d="M81,26c0,1.3-1.1,2.4-2.4,2.4-1.3,0-2.4-1.1-2.4-2.4,0-1.3,1.1-2.4,2.4-2.4,1.3,0,2.4,1.1,2.4,2.4Z"/>
        <path class="cls-2" d="M75.2,14.6c0,2.3-1.8,4.1-4.1,4.1-2.3,0-4.1-1.8-4.1-4.1,0-2.2,1.8-4.1,4.1-4.1,2.3,0,4.1,1.8,4.1,4.1Z"/>
        <path class="cls-2" d="M63.5,5.3c0,2.9-2.4,5.3-5.3,5.3-2.9,0-5.3-2.4-5.3-5.3C53,2.4,55.3,0,58.2,0c2.9,0,5.3,2.4,5.3,5.3Z"/>
        <path class="cls-2" d="M46.9,6.5c0,3.6-2.9,6.4-6.4,6.4-3.6,0-6.4-2.9-6.4-6.4,0-3.6,2.9-6.4,6.4-6.4,3.6,0,6.4,2.9,6.4,6.4Z"/>
        <path class="cls-2" d="M29.4,14.6c0,4.1-3.3,7.5-7.5,7.5-4.1,0-7.5-3.3-7.5-7.5,0-4.1,3.3-7.5,7.5-7.5,4.1,0,7.5,3.3,7.5,7.5Z"/>
      </g>
    </g>
  </g>
</svg>